<svg xmlns="http://www.w3.org/2000/svg" viewBox="0 0 253 68" width="759" height="204">
  <g>
    <rect x="24" y="0" width="20" height="20" rx="5" fill="#F7F3EC"></rect>
    <rect x="48" y="0" width="20" height="20" rx="5" fill="#F7F3EC"></rect>
    <rect x="48" y="24" width="20" height="20" rx="5" fill="#F7F3EC"></rect>
    <rect x="48" y="48" width="20" height="20" rx="5" fill="#F7F3EC"></rect>
    <rect x="24" y="48" width="20" height="20" rx="5" fill="#F7F3EC"></rect>
    <rect x="0" y="40" width="20" height="4" rx="2" fill="#C97E2C"></rect>
    <rect x="0" y="48" width="20" height="4" rx="2" fill="#C97E2C"></rect>
    <rect x="0" y="56" width="20" height="4" rx="2" fill="#C97E2C"></rect>
    <rect x="0" y="64" width="20" height="4" rx="2" fill="#C97E2C"></rect>
  </g>
  <path d="M100.79 27.36L100.79 27.36Q97.04 27.36 94.95 25.70Q92.87 24.03 92.87 20.49L92.87 20.49L92.87 19.83L98 19.83L98 20.49Q98 21.87 98.67 22.52Q99.35 23.16 100.67 23.16L100.67 23.16Q103.31 23.16 103.31 19.86L103.31 19.86L103.31 6.39L108.68 6.39L108.68 19.89Q108.68 23.73 106.61 25.55Q104.54 27.36 100.79 27.36ZM119.90 27.36L119.90 27.36Q115.85 27.36 113.63 25.36Q111.41 23.37 111.41 19.08L111.41 19.08Q111.41 14.88 113.60 12.86Q115.79 10.83 119.72 10.83L119.72 10.83Q123.59 10.83 125.66 12.79Q127.73 14.76 127.73 19.02L127.73 19.02L127.73 20.07L116.39 20.07Q116.42 21.96 117.22 22.96Q118.01 23.97 119.87 23.97L119.87 23.97Q121.37 23.97 122.17 23.27Q122.96 22.56 122.96 21.36L122.96 21.36L127.73 21.36Q127.73 24.27 125.66 25.82Q123.59 27.36 119.90 27.36ZM116.42 17.34L116.42 17.34L122.72 17.34Q122.72 15.78 121.96 15Q121.19 14.22 119.84 14.22L119.84 14.22Q118.22 14.22 117.41 15.02Q116.60 15.81 116.42 17.34ZM135.05 27L130.13 27L130.13 11.19L134.18 11.19L134.54 13.44L134.75 13.44Q135.62 12.21 136.97 11.52Q138.32 10.83 140 10.83L140 10.83Q142.55 10.83 143.95 12.24Q145.34 13.65 145.34 16.56L145.34 16.56L145.34 27L140.42 27L140.42 17.25Q140.42 15.96 139.79 15.33Q139.16 14.70 138.02 14.70L138.02 14.70Q136.73 14.70 135.89 15.57Q135.05 16.44 135.05 17.76L135.05 17.76L135.05 27ZM156.14 27.36L156.14 27.36Q152.09 27.36 149.87 25.36Q147.65 23.37 147.65 19.08L147.65 19.08Q147.65 14.88 149.84 12.86Q152.03 10.83 155.96 10.83L155.96 10.83Q159.83 10.83 161.90 12.79Q163.97 14.76 163.97 19.02L163.97 19.02L163.97 20.07L152.63 20.07Q152.66 21.96 153.46 22.96Q154.25 23.97 156.11 23.97L156.11 23.97Q157.61 23.97 158.41 23.27Q159.20 22.56 159.20 21.36L159.20 21.36L163.97 21.36Q163.97 24.27 161.90 25.82Q159.83 27.36 156.14 27.36ZM152.66 17.34L152.66 17.34L158.96 17.34Q158.96 15.78 158.20 15Q157.43 14.22 156.08 14.22L156.08 14.22Q154.46 14.22 153.65 15.02Q152.84 15.81 152.66 17.34ZM173.15 27.36L173.15 27.36Q171.08 27.36 169.37 26.79Q167.66 26.22 166.64 25.11Q165.62 24 165.62 22.35L165.62 22.35Q165.62 22.14 165.65 21.93L165.65 21.93L170.30 21.93Q170.30 22.02 170.30 22.20L170.30 22.20Q170.30 23.22 171.19 23.66Q172.07 24.09 173.24 24.09L173.24 24.09Q173.81 24.09 174.46 23.98Q175.10 23.88 175.55 23.58Q176.00 23.28 176.00 22.71L176.00 22.71Q176.00 22.08 175.45 21.75Q174.89 21.42 173.98 21.20Q173.06 20.97 172.01 20.76L172.01 20.76Q170.96 20.52 169.90 20.22Q168.83 19.92 167.95 19.39Q167.06 18.87 166.52 18.03Q165.98 17.19 165.98 15.90L165.98 15.90Q165.98 14.07 166.99 12.95Q167.99 11.82 169.67 11.33Q171.35 10.83 173.36 10.83L173.36 10.83Q175.19 10.83 176.80 11.33Q178.40 11.82 179.39 12.81Q180.38 13.80 180.38 15.33L180.38 15.33Q180.38 15.75 180.35 15.87L180.35 15.87L175.73 15.87L175.73 15.63Q175.73 14.91 175.01 14.49Q174.29 14.07 173.24 14.07L173.24 14.07Q172.37 14.07 171.56 14.36Q170.75 14.64 170.75 15.33L170.75 15.33Q170.75 16.02 171.61 16.32Q172.46 16.62 173.69 16.92L173.69 16.92Q174.77 17.16 176.02 17.41Q177.26 17.67 178.36 18.13Q179.45 18.60 180.13 19.52Q180.80 20.43 180.80 22.02L180.80 22.02Q180.80 24.03 179.77 25.20Q178.73 26.37 176.99 26.86Q175.25 27.36 173.15 27.36ZM188.06 9.06L183.14 9.06L183.14 5.28L188.06 5.28L188.06 9.06ZM188.06 27L183.14 27L183.14 11.19L188.06 11.19L188.06 27ZM197.96 27.36L197.96 27.36Q195.89 27.36 194.18 26.79Q192.47 26.22 191.45 25.11Q190.43 24 190.43 22.35L190.43 22.35Q190.43 22.14 190.46 21.93L190.46 21.93L195.11 21.93Q195.11 22.02 195.11 22.20L195.11 22.20Q195.11 23.22 196.00 23.66Q196.88 24.09 198.05 24.09L198.05 24.09Q198.62 24.09 199.27 23.98Q199.91 23.88 200.36 23.58Q200.81 23.28 200.81 22.71L200.81 22.71Q200.81 22.08 200.26 21.75Q199.70 21.42 198.79 21.20Q197.87 20.97 196.82 20.76L196.82 20.76Q195.77 20.52 194.71 20.22Q193.64 19.92 192.76 19.39Q191.87 18.87 191.33 18.03Q190.79 17.19 190.79 15.90L190.79 15.90Q190.79 14.07 191.80 12.95Q192.80 11.82 194.48 11.33Q196.16 10.83 198.17 10.83L198.17 10.83Q200.00 10.83 201.61 11.33Q203.21 11.82 204.20 12.81Q205.19 13.80 205.19 15.33L205.19 15.33Q205.19 15.75 205.16 15.87L205.16 15.87L200.54 15.87L200.54 15.63Q200.54 14.91 199.82 14.49Q199.10 14.07 198.05 14.07L198.05 14.07Q197.18 14.07 196.37 14.36Q195.56 14.64 195.56 15.33L195.56 15.33Q195.56 16.02 196.42 16.32Q197.27 16.62 198.50 16.92L198.50 16.92Q199.58 17.16 200.83 17.41Q202.07 17.67 203.17 18.13Q204.26 18.60 204.94 19.52Q205.61 20.43 205.61 22.02L205.61 22.02Q205.61 24.03 204.58 25.20Q203.54 26.37 201.80 26.86Q200.06 27.36 197.96 27.36Z" fill="#F7F3EC"></path>
  <path d="M99.62 59L94.25 59L94.25 38.39L106.22 38.39Q108.50 38.39 110.03 39.25Q111.56 40.10 112.33 41.59Q113.09 43.07 113.09 44.90L113.09 44.90Q113.09 46.88 112.17 48.42Q111.26 49.97 109.61 50.84L109.61 50.84L113.75 59L107.75 59L104.33 51.74L99.62 51.74L99.62 59ZM99.62 42.47L99.62 47.75L105.20 47.75Q106.28 47.75 106.95 47.02Q107.63 46.28 107.63 45.05L107.63 45.05Q107.63 43.88 106.97 43.17Q106.31 42.47 105.20 42.47L105.20 42.47L99.62 42.47ZM123.05 59.36L123.05 59.36Q119 59.36 116.78 57.37Q114.56 55.37 114.56 51.08L114.56 51.08Q114.56 46.88 116.75 44.86Q118.94 42.83 122.87 42.83L122.87 42.83Q126.74 42.83 128.81 44.80Q130.88 46.76 130.88 51.02L130.88 51.02L130.88 52.07L119.54 52.07Q119.57 53.96 120.37 54.97Q121.16 55.97 123.02 55.97L123.02 55.97Q124.52 55.97 125.31 55.27Q126.11 54.56 126.11 53.36L126.11 53.36L130.88 53.36Q130.88 56.27 128.81 57.81Q126.74 59.36 123.05 59.36ZM119.57 49.34L119.57 49.34L125.87 49.34Q125.87 47.78 125.11 47Q124.34 46.22 122.99 46.22L122.99 46.22Q121.37 46.22 120.56 47.02Q119.75 47.81 119.57 49.34ZM138.23 64.58L133.31 64.58L133.31 43.19L137.33 43.19L137.75 45.38L137.96 45.38Q138.77 44.03 140.02 43.43Q141.26 42.83 142.79 42.83L142.79 42.83Q145.82 42.83 147.55 44.86Q149.27 46.88 149.27 51.11L149.27 51.11Q149.27 55.31 147.53 57.34Q145.79 59.36 142.88 59.36L142.88 59.36Q141.44 59.36 140.29 58.88Q139.13 58.40 138.41 57.38L138.41 57.38L138.23 57.38L138.23 64.58ZM141.26 55.52L141.26 55.52Q142.91 55.52 143.62 54.52Q144.32 53.51 144.32 51.62L144.32 51.62L144.32 50.57Q144.32 48.65 143.62 47.66Q142.91 46.67 141.26 46.67L141.26 46.67Q139.64 46.67 138.92 47.78Q138.20 48.89 138.20 50.72L138.20 50.72L138.20 51.44Q138.20 53.27 138.92 54.40Q139.64 55.52 141.26 55.52ZM159.32 59.36L159.32 59.36Q155.36 59.36 153.14 57.34Q150.92 55.31 150.92 51.08L150.92 51.08Q150.92 46.88 153.14 44.86Q155.36 42.83 159.32 42.83L159.32 42.83Q163.31 42.83 165.53 44.86Q167.75 46.88 167.75 51.08L167.75 51.08Q167.75 55.31 165.53 57.34Q163.31 59.36 159.32 59.36ZM159.32 55.79L159.32 55.79Q161.18 55.79 161.98 54.74Q162.77 53.69 162.77 51.65L162.77 51.65L162.77 50.54Q162.77 48.53 161.98 47.47Q161.18 46.40 159.32 46.40L159.32 46.40Q157.49 46.40 156.70 47.47Q155.90 48.53 155.90 50.54L155.90 50.54L155.90 51.65Q155.90 53.69 156.70 54.74Q157.49 55.79 159.32 55.79ZM176.93 59.36L176.93 59.36Q174.86 59.36 173.15 58.79Q171.44 58.22 170.42 57.11Q169.40 56 169.40 54.35L169.40 54.35Q169.40 54.14 169.43 53.93L169.43 53.93L174.08 53.93Q174.08 54.02 174.08 54.20L174.08 54.20Q174.08 55.22 174.97 55.66Q175.85 56.09 177.02 56.09L177.02 56.09Q177.59 56.09 178.24 55.98Q178.88 55.88 179.33 55.58Q179.78 55.28 179.78 54.71L179.78 54.71Q179.78 54.08 179.23 53.75Q178.67 53.42 177.76 53.20Q176.84 52.97 175.79 52.76L175.79 52.76Q174.74 52.52 173.68 52.22Q172.61 51.92 171.73 51.40Q170.84 50.87 170.30 50.03Q169.76 49.19 169.76 47.90L169.76 47.90Q169.76 46.07 170.77 44.95Q171.77 43.82 173.45 43.33Q175.13 42.83 177.14 42.83L177.14 42.83Q178.97 42.83 180.58 43.33Q182.18 43.82 183.17 44.81Q184.16 45.80 184.16 47.33L184.16 47.33Q184.16 47.75 184.13 47.87L184.13 47.87L179.51 47.87L179.51 47.63Q179.51 46.91 178.79 46.49Q178.07 46.07 177.02 46.07L177.02 46.07Q176.15 46.07 175.34 46.36Q174.53 46.64 174.53 47.33L174.53 47.33Q174.53 48.02 175.39 48.32Q176.24 48.62 177.47 48.92L177.47 48.92Q178.55 49.16 179.80 49.41Q181.04 49.67 182.14 50.13Q183.23 50.60 183.91 51.52Q184.58 52.43 184.58 54.02L184.58 54.02Q184.58 56.03 183.55 57.20Q182.51 58.37 180.77 58.87Q179.03 59.36 176.93 59.36ZM191.84 41.06L186.92 41.06L186.92 37.28L191.84 37.28L191.84 41.06ZM191.84 59L186.92 59L186.92 43.19L191.84 43.19L191.84 59ZM200.51 59.36L200.51 59.36Q198.20 59.36 197.00 58.30Q195.80 57.23 195.80 55.25L195.80 55.25L195.80 46.76L193.73 46.76L193.73 43.19L195.95 43.19L196.97 38.57L200.69 38.57L200.69 43.19L203.78 43.19L203.78 46.76L200.69 46.76L200.69 54.05Q200.69 54.89 201.04 55.34Q201.38 55.79 202.22 55.79L202.22 55.79L203.78 55.79L203.78 58.85Q203.18 59.06 202.21 59.21Q201.23 59.36 200.51 59.36ZM213.56 59.36L213.56 59.36Q209.60 59.36 207.38 57.34Q205.16 55.31 205.16 51.08L205.16 51.08Q205.16 46.88 207.38 44.86Q209.60 42.83 213.56 42.83L213.56 42.83Q217.55 42.83 219.77 44.86Q221.99 46.88 221.99 51.08L221.99 51.08Q221.99 55.31 219.77 57.34Q217.55 59.36 213.56 59.36ZM213.56 55.79L213.56 55.79Q215.42 55.79 216.22 54.74Q217.01 53.69 217.01 51.65L217.01 51.65L217.01 50.54Q217.01 48.53 216.22 47.47Q215.42 46.40 213.56 46.40L213.56 46.40Q211.73 46.40 210.94 47.47Q210.14 48.53 210.14 50.54L210.14 50.54L210.14 51.65Q210.14 53.69 210.94 54.74Q211.73 55.79 213.56 55.79ZM229.31 59L224.39 59L224.39 43.19L228.44 43.19L228.80 45.62L229.01 45.62Q229.52 44.39 230.50 43.59Q231.47 42.80 232.88 42.80L232.88 42.80Q233.42 42.80 233.87 42.92Q234.32 43.04 234.53 43.13L234.53 43.13L234.53 47.42L232.97 47.42Q231.05 47.42 230.18 48.45Q229.31 49.49 229.31 51.47L229.31 51.47L229.31 59ZM238.52 64.91L238.52 64.91Q237.44 64.91 236.63 64.75Q235.82 64.58 235.49 64.46L235.49 64.46L235.49 61.34L237.56 61.34Q238.85 61.34 239.53 60.58Q240.20 59.81 240.44 59L240.44 59L234.20 43.19L239.45 43.19L241.79 50.12Q241.97 50.60 242.20 51.37Q242.42 52.13 242.65 52.94Q242.87 53.75 243.02 54.35L243.02 54.35L243.20 54.35Q243.35 53.78 243.56 53Q243.77 52.22 243.98 51.45Q244.19 50.69 244.37 50.15L244.37 50.15L246.38 43.19L251.27 43.19L245.81 58.37Q245.15 60.20 244.25 61.69Q243.35 63.17 241.99 64.04Q240.62 64.91 238.52 64.91Z" fill="#C97E2C"></path>
</svg>