<svg xmlns="http://www.w3.org/2000/svg" viewBox="0 0 209 68" width="627" height="204">
  <g>
    <rect x="24" y="0" width="20" height="20" rx="5" fill="#F7F3EC"></rect>
    <rect x="48" y="0" width="20" height="20" rx="5" fill="#F7F3EC"></rect>
    <rect x="48" y="24" width="20" height="20" rx="5" fill="#F7F3EC"></rect>
    <rect x="48" y="48" width="20" height="20" rx="5" fill="#F7F3EC"></rect>
    <rect x="24" y="48" width="20" height="20" rx="5" fill="#F7F3EC"></rect>
    <path d="M5 36H15Q20 36 20 41V63Q20 68 15 68H12Q0 68 0 56V41Q0 36 5 36Z" fill="#C97E2C"></path>
  </g>
  <path d="M100.79 27.36L100.79 27.36Q97.04 27.36 94.95 25.70Q92.87 24.03 92.87 20.49L92.87 20.49L92.87 19.83L98 19.83L98 20.49Q98 21.87 98.67 22.52Q99.35 23.16 100.67 23.16L100.67 23.16Q103.31 23.16 103.31 19.86L103.31 19.86L103.31 6.39L108.68 6.39L108.68 19.89Q108.68 23.73 106.61 25.55Q104.54 27.36 100.79 27.36ZM119.90 27.36L119.90 27.36Q115.85 27.36 113.63 25.36Q111.41 23.37 111.41 19.08L111.41 19.08Q111.41 14.88 113.60 12.86Q115.79 10.83 119.72 10.83L119.72 10.83Q123.59 10.83 125.66 12.79Q127.73 14.76 127.73 19.02L127.73 19.02L127.73 20.07L116.39 20.07Q116.42 21.96 117.22 22.96Q118.01 23.97 119.87 23.97L119.87 23.97Q121.37 23.97 122.17 23.27Q122.96 22.56 122.96 21.36L122.96 21.36L127.73 21.36Q127.73 24.27 125.66 25.82Q123.59 27.36 119.90 27.36ZM116.42 17.34L116.42 17.34L122.72 17.34Q122.72 15.78 121.96 15Q121.19 14.22 119.84 14.22L119.84 14.22Q118.22 14.22 117.41 15.02Q116.60 15.81 116.42 17.34ZM135.05 27L130.13 27L130.13 11.19L134.18 11.19L134.54 13.44L134.75 13.44Q135.62 12.21 136.97 11.52Q138.32 10.83 140 10.83L140 10.83Q142.55 10.83 143.95 12.24Q145.34 13.65 145.34 16.56L145.34 16.56L145.34 27L140.42 27L140.42 17.25Q140.42 15.96 139.79 15.33Q139.16 14.70 138.02 14.70L138.02 14.70Q136.73 14.70 135.89 15.57Q135.05 16.44 135.05 17.76L135.05 17.76L135.05 27ZM156.14 27.36L156.14 27.36Q152.09 27.36 149.87 25.36Q147.65 23.37 147.65 19.08L147.65 19.08Q147.65 14.88 149.84 12.86Q152.03 10.83 155.96 10.83L155.96 10.83Q159.83 10.83 161.90 12.79Q163.97 14.76 163.97 19.02L163.97 19.02L163.97 20.07L152.63 20.07Q152.66 21.96 153.46 22.96Q154.25 23.97 156.11 23.97L156.11 23.97Q157.61 23.97 158.41 23.27Q159.20 22.56 159.20 21.36L159.20 21.36L163.97 21.36Q163.97 24.27 161.90 25.82Q159.83 27.36 156.14 27.36ZM152.66 17.34L152.66 17.34L158.96 17.34Q158.96 15.78 158.20 15Q157.43 14.22 156.08 14.22L156.08 14.22Q154.46 14.22 153.65 15.02Q152.84 15.81 152.66 17.34ZM173.15 27.36L173.15 27.36Q171.08 27.36 169.37 26.79Q167.66 26.22 166.64 25.11Q165.62 24 165.62 22.35L165.62 22.35Q165.62 22.14 165.65 21.93L165.65 21.93L170.30 21.93Q170.30 22.02 170.30 22.20L170.30 22.20Q170.30 23.22 171.19 23.66Q172.07 24.09 173.24 24.09L173.24 24.09Q173.81 24.09 174.46 23.98Q175.10 23.88 175.55 23.58Q176.00 23.28 176.00 22.71L176.00 22.71Q176.00 22.08 175.45 21.75Q174.89 21.42 173.98 21.20Q173.06 20.97 172.01 20.76L172.01 20.76Q170.96 20.52 169.90 20.22Q168.83 19.92 167.95 19.39Q167.06 18.87 166.52 18.03Q165.98 17.19 165.98 15.90L165.98 15.90Q165.98 14.07 166.99 12.95Q167.99 11.82 169.67 11.33Q171.35 10.83 173.36 10.83L173.36 10.83Q175.19 10.83 176.80 11.33Q178.40 11.82 179.39 12.81Q180.38 13.80 180.38 15.33L180.38 15.33Q180.38 15.75 180.35 15.87L180.35 15.87L175.73 15.87L175.73 15.63Q175.73 14.91 175.01 14.49Q174.29 14.07 173.24 14.07L173.24 14.07Q172.37 14.07 171.56 14.36Q170.75 14.64 170.75 15.33L170.75 15.33Q170.75 16.02 171.61 16.32Q172.46 16.62 173.69 16.92L173.69 16.92Q174.77 17.16 176.02 17.41Q177.26 17.67 178.36 18.13Q179.45 18.60 180.13 19.52Q180.80 20.43 180.80 22.02L180.80 22.02Q180.80 24.03 179.77 25.20Q178.73 26.37 176.99 26.86Q175.25 27.36 173.15 27.36ZM188.06 9.06L183.14 9.06L183.14 5.28L188.06 5.28L188.06 9.06ZM188.06 27L183.14 27L183.14 11.19L188.06 11.19L188.06 27ZM197.96 27.36L197.96 27.36Q195.89 27.36 194.18 26.79Q192.47 26.22 191.45 25.11Q190.43 24 190.43 22.35L190.43 22.35Q190.43 22.14 190.46 21.93L190.46 21.93L195.11 21.93Q195.11 22.02 195.11 22.20L195.11 22.20Q195.11 23.22 196.00 23.66Q196.88 24.09 198.05 24.09L198.05 24.09Q198.62 24.09 199.27 23.98Q199.91 23.88 200.36 23.58Q200.81 23.28 200.81 22.71L200.81 22.71Q200.81 22.08 200.26 21.75Q199.70 21.42 198.79 21.20Q197.87 20.97 196.82 20.76L196.82 20.76Q195.77 20.52 194.71 20.22Q193.64 19.92 192.76 19.39Q191.87 18.87 191.33 18.03Q190.79 17.19 190.79 15.90L190.79 15.90Q190.79 14.07 191.80 12.95Q192.80 11.82 194.48 11.33Q196.16 10.83 198.17 10.83L198.17 10.83Q200.00 10.83 201.61 11.33Q203.21 11.82 204.20 12.81Q205.19 13.80 205.19 15.33L205.19 15.33Q205.19 15.75 205.16 15.87L205.16 15.87L200.54 15.87L200.54 15.63Q200.54 14.91 199.82 14.49Q199.10 14.07 198.05 14.07L198.05 14.07Q197.18 14.07 196.37 14.36Q195.56 14.64 195.56 15.33L195.56 15.33Q195.56 16.02 196.42 16.32Q197.27 16.62 198.50 16.92L198.50 16.92Q199.58 17.16 200.83 17.41Q202.07 17.67 203.17 18.13Q204.26 18.60 204.94 19.52Q205.61 20.43 205.61 22.02L205.61 22.02Q205.61 24.03 204.58 25.20Q203.54 26.37 201.80 26.86Q200.06 27.36 197.96 27.36Z" fill="#F7F3EC"></path>
  <path d="M104.78 59L99.41 59L99.41 42.80L92.72 42.80L92.72 38.39L111.47 38.39L111.47 42.80L104.78 42.80L104.78 59ZM118.76 59.36L118.76 59.36Q114.80 59.36 112.58 57.34Q110.36 55.31 110.36 51.08L110.36 51.08Q110.36 46.88 112.58 44.86Q114.80 42.83 118.76 42.83L118.76 42.83Q122.75 42.83 124.97 44.86Q127.19 46.88 127.19 51.08L127.19 51.08Q127.19 55.31 124.97 57.34Q122.75 59.36 118.76 59.36ZM118.76 55.79L118.76 55.79Q120.62 55.79 121.41 54.74Q122.21 53.69 122.21 51.65L122.21 51.65L122.21 50.54Q122.21 48.53 121.41 47.47Q120.62 46.40 118.76 46.40L118.76 46.40Q116.93 46.40 116.14 47.47Q115.34 48.53 115.34 50.54L115.34 50.54L115.34 51.65Q115.34 53.69 116.14 54.74Q116.93 55.79 118.76 55.79ZM137.24 59.36L137.24 59.36Q133.28 59.36 131.06 57.34Q128.84 55.31 128.84 51.08L128.84 51.08Q128.84 46.88 131.06 44.86Q133.28 42.83 137.24 42.83L137.24 42.83Q141.23 42.83 143.45 44.86Q145.67 46.88 145.67 51.08L145.67 51.08Q145.67 55.31 143.45 57.34Q141.23 59.36 137.24 59.36ZM137.24 55.79L137.24 55.79Q139.10 55.79 139.89 54.74Q140.69 53.69 140.69 51.65L140.69 51.65L140.69 50.54Q140.69 48.53 139.89 47.47Q139.10 46.40 137.24 46.40L137.24 46.40Q135.41 46.40 134.61 47.47Q133.82 48.53 133.82 50.54L133.82 50.54L133.82 51.65Q133.82 53.69 134.61 54.74Q135.41 55.79 137.24 55.79ZM152.99 59L148.07 59L148.07 37.28L152.99 37.28L152.99 59Z" fill="#C97E2C"></path>
</svg>