<svg xmlns="http://www.w3.org/2000/svg" viewBox="0 0 233 68" width="699" height="204">
  <g>
    <rect x="24" y="0" width="20" height="20" rx="5" fill="#F7F3EC"></rect>
    <rect x="48" y="0" width="20" height="20" rx="5" fill="#F7F3EC"></rect>
    <rect x="48" y="24" width="20" height="20" rx="5" fill="#F7F3EC"></rect>
    <rect x="48" y="48" width="20" height="20" rx="5" fill="#F7F3EC"></rect>
    <rect x="24" y="48" width="20" height="20" rx="5" fill="#F7F3EC"></rect>
    <rect x="2" y="42" width="16" height="16" rx="4" fill="#C97E2C" transform="rotate(45 10 50)"></rect>
  </g>
  <path d="M100.79 27.36L100.79 27.36Q97.04 27.36 94.95 25.70Q92.87 24.03 92.87 20.49L92.87 20.49L92.87 19.83L98 19.83L98 20.49Q98 21.87 98.67 22.52Q99.35 23.16 100.67 23.16L100.67 23.16Q103.31 23.16 103.31 19.86L103.31 19.86L103.31 6.39L108.68 6.39L108.68 19.89Q108.68 23.73 106.61 25.55Q104.54 27.36 100.79 27.36ZM119.90 27.36L119.90 27.36Q115.85 27.36 113.63 25.36Q111.41 23.37 111.41 19.08L111.41 19.08Q111.41 14.88 113.60 12.86Q115.79 10.83 119.72 10.83L119.72 10.83Q123.59 10.83 125.66 12.79Q127.73 14.76 127.73 19.02L127.73 19.02L127.73 20.07L116.39 20.07Q116.42 21.96 117.22 22.96Q118.01 23.97 119.87 23.97L119.87 23.97Q121.37 23.97 122.17 23.27Q122.96 22.56 122.96 21.36L122.96 21.36L127.73 21.36Q127.73 24.27 125.66 25.82Q123.59 27.36 119.90 27.36ZM116.42 17.34L116.42 17.34L122.72 17.34Q122.72 15.78 121.96 15Q121.19 14.22 119.84 14.22L119.84 14.22Q118.22 14.22 117.41 15.02Q116.60 15.81 116.42 17.34ZM135.05 27L130.13 27L130.13 11.19L134.18 11.19L134.54 13.44L134.75 13.44Q135.62 12.21 136.97 11.52Q138.32 10.83 140 10.83L140 10.83Q142.55 10.83 143.95 12.24Q145.34 13.65 145.34 16.56L145.34 16.56L145.34 27L140.42 27L140.42 17.25Q140.42 15.96 139.79 15.33Q139.16 14.70 138.02 14.70L138.02 14.70Q136.73 14.70 135.89 15.57Q135.05 16.44 135.05 17.76L135.05 17.76L135.05 27ZM156.14 27.36L156.14 27.36Q152.09 27.36 149.87 25.36Q147.65 23.37 147.65 19.08L147.65 19.08Q147.65 14.88 149.84 12.86Q152.03 10.83 155.96 10.83L155.96 10.83Q159.83 10.83 161.90 12.79Q163.97 14.76 163.97 19.02L163.97 19.02L163.97 20.07L152.63 20.07Q152.66 21.96 153.46 22.96Q154.25 23.97 156.11 23.97L156.11 23.97Q157.61 23.97 158.41 23.27Q159.20 22.56 159.20 21.36L159.20 21.36L163.97 21.36Q163.97 24.27 161.90 25.82Q159.83 27.36 156.14 27.36ZM152.66 17.34L152.66 17.34L158.96 17.34Q158.96 15.78 158.20 15Q157.43 14.22 156.08 14.22L156.08 14.22Q154.46 14.22 153.65 15.02Q152.84 15.81 152.66 17.34ZM173.15 27.36L173.15 27.36Q171.08 27.36 169.37 26.79Q167.66 26.22 166.64 25.11Q165.62 24 165.62 22.35L165.62 22.35Q165.62 22.14 165.65 21.93L165.65 21.93L170.30 21.93Q170.30 22.02 170.30 22.20L170.30 22.20Q170.30 23.22 171.19 23.66Q172.07 24.09 173.24 24.09L173.24 24.09Q173.81 24.09 174.46 23.98Q175.10 23.88 175.55 23.58Q176.00 23.28 176.00 22.71L176.00 22.71Q176.00 22.08 175.45 21.75Q174.89 21.42 173.98 21.20Q173.06 20.97 172.01 20.76L172.01 20.76Q170.96 20.52 169.90 20.22Q168.83 19.92 167.95 19.39Q167.06 18.87 166.52 18.03Q165.98 17.19 165.98 15.90L165.98 15.90Q165.98 14.07 166.99 12.95Q167.99 11.82 169.67 11.33Q171.35 10.83 173.36 10.83L173.36 10.83Q175.19 10.83 176.80 11.33Q178.40 11.82 179.39 12.81Q180.38 13.80 180.38 15.33L180.38 15.33Q180.38 15.75 180.35 15.87L180.35 15.87L175.73 15.87L175.73 15.63Q175.73 14.91 175.01 14.49Q174.29 14.07 173.24 14.07L173.24 14.07Q172.37 14.07 171.56 14.36Q170.75 14.64 170.75 15.33L170.75 15.33Q170.75 16.02 171.61 16.32Q172.46 16.62 173.69 16.92L173.69 16.92Q174.77 17.16 176.02 17.41Q177.26 17.67 178.36 18.13Q179.45 18.60 180.13 19.52Q180.80 20.43 180.80 22.02L180.80 22.02Q180.80 24.03 179.77 25.20Q178.73 26.37 176.99 26.86Q175.25 27.36 173.15 27.36ZM188.06 9.06L183.14 9.06L183.14 5.28L188.06 5.28L188.06 9.06ZM188.06 27L183.14 27L183.14 11.19L188.06 11.19L188.06 27ZM197.96 27.36L197.96 27.36Q195.89 27.36 194.18 26.79Q192.47 26.22 191.45 25.11Q190.43 24 190.43 22.35L190.43 22.35Q190.43 22.14 190.46 21.93L190.46 21.93L195.11 21.93Q195.11 22.02 195.11 22.20L195.11 22.20Q195.11 23.22 196.00 23.66Q196.88 24.09 198.05 24.09L198.05 24.09Q198.62 24.09 199.27 23.98Q199.91 23.88 200.36 23.58Q200.81 23.28 200.81 22.71L200.81 22.71Q200.81 22.08 200.26 21.75Q199.70 21.42 198.79 21.20Q197.87 20.97 196.82 20.76L196.82 20.76Q195.77 20.52 194.71 20.22Q193.64 19.92 192.76 19.39Q191.87 18.87 191.33 18.03Q190.79 17.19 190.79 15.90L190.79 15.90Q190.79 14.07 191.80 12.95Q192.80 11.82 194.48 11.33Q196.16 10.83 198.17 10.83L198.17 10.83Q200.00 10.83 201.61 11.33Q203.21 11.82 204.20 12.81Q205.19 13.80 205.19 15.33L205.19 15.33Q205.19 15.75 205.16 15.87L205.16 15.87L200.54 15.87L200.54 15.63Q200.54 14.91 199.82 14.49Q199.10 14.07 198.05 14.07L198.05 14.07Q197.18 14.07 196.37 14.36Q195.56 14.64 195.56 15.33L195.56 15.33Q195.56 16.02 196.42 16.32Q197.27 16.62 198.50 16.92L198.50 16.92Q199.58 17.16 200.83 17.41Q202.07 17.67 203.17 18.13Q204.26 18.60 204.94 19.52Q205.61 20.43 205.61 22.02L205.61 22.02Q205.61 24.03 204.58 25.20Q203.54 26.37 201.80 26.86Q200.06 27.36 197.96 27.36Z" fill="#F7F3EC"></path>
  <path d="M110.09 59L94.25 59L94.25 38.39L99.62 38.39L99.62 54.59L110.09 54.59L110.09 59ZM116.36 59.36L116.36 59.36Q115.04 59.36 113.83 58.98Q112.61 58.61 111.83 57.65Q111.05 56.69 111.05 54.92L111.05 54.92Q111.05 52.64 112.33 51.44Q113.60 50.24 115.94 49.79Q118.28 49.34 121.49 49.34L121.49 49.34L121.49 48.35Q121.49 47.36 120.89 46.79Q120.29 46.22 119.03 46.22L119.03 46.22Q117.83 46.22 117.16 46.64Q116.48 47.06 116.48 47.75L116.48 47.75L116.48 48.02L111.68 48.02Q111.65 47.90 111.65 47.77Q111.65 47.63 111.65 47.48L111.65 47.48Q111.65 45.38 113.60 44.11Q115.55 42.83 119.06 42.83L119.06 42.83Q121.22 42.83 122.87 43.36Q124.52 43.88 125.47 45.01Q126.41 46.13 126.41 47.93L126.41 47.93L126.41 54.68Q126.41 55.79 127.40 55.79L127.40 55.79L128.42 55.79L128.42 58.82Q128.09 59 127.39 59.18Q126.68 59.36 125.69 59.36L125.69 59.36Q124.19 59.36 123.22 58.80Q122.24 58.25 121.97 57.29L121.97 57.29L121.76 57.29Q120.89 58.19 119.59 58.77Q118.28 59.36 116.36 59.36ZM118.19 55.97L118.19 55.97Q119.63 55.97 120.56 55.17Q121.49 54.38 121.49 53.09L121.49 53.09L121.49 52.04Q118.91 52.04 117.45 52.59Q116 53.15 116 54.32L116 54.32Q116 55.22 116.62 55.59Q117.23 55.97 118.19 55.97ZM135.08 59.36L135.08 59.36Q132.53 59.36 131.13 57.95Q129.74 56.54 129.74 53.63L129.74 53.63L129.74 43.19L134.66 43.19L134.66 52.94Q134.66 54.23 135.29 54.86Q135.92 55.49 137.06 55.49L137.06 55.49Q138.35 55.49 139.19 54.61Q140.03 53.72 140.03 52.43L140.03 52.43L140.03 43.19L144.95 43.19L144.95 59L140.90 59L140.60 56.75L140.39 56.75Q139.55 57.95 138.16 58.66Q136.76 59.36 135.08 59.36ZM153.02 59L148.10 59L148.10 43.19L152.15 43.19L152.51 45.44L152.72 45.44Q153.59 44.21 154.94 43.52Q156.29 42.83 157.97 42.83L157.97 42.83Q160.52 42.83 161.92 44.24Q163.31 45.65 163.31 48.56L163.31 48.56L163.31 59L158.39 59L158.39 49.25Q158.39 47.96 157.76 47.33Q157.13 46.70 155.99 46.70L155.99 46.70Q154.70 46.70 153.86 47.57Q153.02 48.44 153.02 49.76L153.02 49.76L153.02 59ZM173.84 59.36L173.84 59.36Q169.94 59.36 167.78 57.34Q165.62 55.31 165.62 51.08L165.62 51.08Q165.62 46.88 167.78 44.84Q169.94 42.80 173.84 42.80L173.84 42.80Q176.09 42.80 177.86 43.51Q179.63 44.21 180.64 45.65Q181.64 47.09 181.64 49.37L181.64 49.37L176.81 49.37Q176.81 46.37 173.81 46.37L173.81 46.37Q172.10 46.37 171.35 47.45Q170.60 48.53 170.60 50.54L170.60 50.54L170.60 51.65Q170.60 53.69 171.37 54.74Q172.13 55.79 173.93 55.79L173.93 55.79Q175.43 55.79 176.23 55.05Q177.02 54.32 177.02 52.79L177.02 52.79L181.64 52.79Q181.64 55.01 180.64 56.47Q179.63 57.92 177.88 58.64Q176.12 59.36 173.84 59.36ZM189.05 59L184.13 59L184.13 37.28L189.05 37.28L189.05 44.90L189.26 44.90Q190.04 43.97 191.28 43.40Q192.53 42.83 194 42.83L194 42.83Q196.55 42.83 197.95 44.24Q199.34 45.65 199.34 48.56L199.34 48.56L199.34 59L194.42 59L194.42 49.25Q194.42 47.96 193.79 47.33Q193.16 46.70 192.02 46.70L192.02 46.70Q190.73 46.70 189.89 47.57Q189.05 48.44 189.05 49.76L189.05 49.76L189.05 59ZM210.14 59.36L210.14 59.36Q206.09 59.36 203.87 57.37Q201.65 55.37 201.65 51.08L201.65 51.08Q201.65 46.88 203.84 44.86Q206.03 42.83 209.96 42.83L209.96 42.83Q213.83 42.83 215.90 44.80Q217.97 46.76 217.97 51.02L217.97 51.02L217.97 52.07L206.63 52.07Q206.66 53.96 207.46 54.97Q208.25 55.97 210.11 55.97L210.11 55.97Q211.61 55.97 212.41 55.27Q213.20 54.56 213.20 53.36L213.20 53.36L217.97 53.36Q217.97 56.27 215.90 57.81Q213.83 59.36 210.14 59.36ZM206.66 49.34L206.66 49.34L212.96 49.34Q212.96 47.78 212.20 47Q211.43 46.22 210.08 46.22L210.08 46.22Q208.46 46.22 207.65 47.02Q206.84 47.81 206.66 49.34ZM225.29 59L220.37 59L220.37 43.19L224.42 43.19L224.78 45.62L224.99 45.62Q225.50 44.39 226.48 43.59Q227.45 42.80 228.86 42.80L228.86 42.80Q229.40 42.80 229.85 42.92Q230.30 43.04 230.51 43.13L230.51 43.13L230.51 47.42L228.95 47.42Q227.03 47.42 226.16 48.45Q225.29 49.49 225.29 51.47L225.29 51.47L225.29 59Z" fill="#C97E2C"></path>
</svg>