<svg xmlns="http://www.w3.org/2000/svg" viewBox="0 0 219 68" width="657" height="204">
  <g>
    <rect x="24" y="0" width="20" height="20" rx="5" fill="#F7F3EC"></rect>
    <rect x="48" y="0" width="20" height="20" rx="5" fill="#F7F3EC"></rect>
    <rect x="48" y="24" width="20" height="20" rx="5" fill="#F7F3EC"></rect>
    <rect x="48" y="48" width="20" height="20" rx="5" fill="#F7F3EC"></rect>
    <rect x="24" y="48" width="20" height="20" rx="5" fill="#F7F3EC"></rect>
    <rect x="0" y="36" width="8" height="8" rx="2.5" fill="#C97E2C"></rect>
    <rect x="12" y="36" width="8" height="8" rx="2.5" fill="#C97E2C"></rect>
    <rect x="0" y="48" width="8" height="8" rx="2.5" fill="#C97E2C"></rect>
    <rect x="12" y="48" width="8" height="8" rx="2.5" fill="#C97E2C"></rect>
    <rect x="0" y="60" width="8" height="8" rx="2.5" fill="#C97E2C"></rect>
    <rect x="12" y="60" width="8" height="8" rx="2.5" fill="#C97E2C"></rect>
  </g>
  <path d="M100.79 27.36L100.79 27.36Q97.04 27.36 94.95 25.70Q92.87 24.03 92.87 20.49L92.87 20.49L92.87 19.83L98 19.83L98 20.49Q98 21.87 98.67 22.52Q99.35 23.16 100.67 23.16L100.67 23.16Q103.31 23.16 103.31 19.86L103.31 19.86L103.31 6.39L108.68 6.39L108.68 19.89Q108.68 23.73 106.61 25.55Q104.54 27.36 100.79 27.36ZM119.90 27.36L119.90 27.36Q115.85 27.36 113.63 25.36Q111.41 23.37 111.41 19.08L111.41 19.08Q111.41 14.88 113.60 12.86Q115.79 10.83 119.72 10.83L119.72 10.83Q123.59 10.83 125.66 12.79Q127.73 14.76 127.73 19.02L127.73 19.02L127.73 20.07L116.39 20.07Q116.42 21.96 117.22 22.96Q118.01 23.97 119.87 23.97L119.87 23.97Q121.37 23.97 122.17 23.27Q122.96 22.56 122.96 21.36L122.96 21.36L127.73 21.36Q127.73 24.27 125.66 25.82Q123.59 27.36 119.90 27.36ZM116.42 17.34L116.42 17.34L122.72 17.34Q122.72 15.78 121.96 15Q121.19 14.22 119.84 14.22L119.84 14.22Q118.22 14.22 117.41 15.02Q116.60 15.81 116.42 17.34ZM135.05 27L130.13 27L130.13 11.19L134.18 11.19L134.54 13.44L134.75 13.44Q135.62 12.21 136.97 11.52Q138.32 10.83 140 10.83L140 10.83Q142.55 10.83 143.95 12.24Q145.34 13.65 145.34 16.56L145.34 16.56L145.34 27L140.42 27L140.42 17.25Q140.42 15.96 139.79 15.33Q139.16 14.70 138.02 14.70L138.02 14.70Q136.73 14.70 135.89 15.57Q135.05 16.44 135.05 17.76L135.05 17.76L135.05 27ZM156.14 27.36L156.14 27.36Q152.09 27.36 149.87 25.36Q147.65 23.37 147.65 19.08L147.65 19.08Q147.65 14.88 149.84 12.86Q152.03 10.83 155.96 10.83L155.96 10.83Q159.83 10.83 161.90 12.79Q163.97 14.76 163.97 19.02L163.97 19.02L163.97 20.07L152.63 20.07Q152.66 21.96 153.46 22.96Q154.25 23.97 156.11 23.97L156.11 23.97Q157.61 23.97 158.41 23.27Q159.20 22.56 159.20 21.36L159.20 21.36L163.97 21.36Q163.97 24.27 161.90 25.82Q159.83 27.36 156.14 27.36ZM152.66 17.34L152.66 17.34L158.96 17.34Q158.96 15.78 158.20 15Q157.43 14.22 156.08 14.22L156.08 14.22Q154.46 14.22 153.65 15.02Q152.84 15.81 152.66 17.34ZM173.15 27.36L173.15 27.36Q171.08 27.36 169.37 26.79Q167.66 26.22 166.64 25.11Q165.62 24 165.62 22.35L165.62 22.35Q165.62 22.14 165.65 21.93L165.65 21.93L170.30 21.93Q170.30 22.02 170.30 22.20L170.30 22.20Q170.30 23.22 171.19 23.66Q172.07 24.09 173.24 24.09L173.24 24.09Q173.81 24.09 174.46 23.98Q175.10 23.88 175.55 23.58Q176.00 23.28 176.00 22.71L176.00 22.71Q176.00 22.08 175.45 21.75Q174.89 21.42 173.98 21.20Q173.06 20.97 172.01 20.76L172.01 20.76Q170.96 20.52 169.90 20.22Q168.83 19.92 167.95 19.39Q167.06 18.87 166.52 18.03Q165.98 17.19 165.98 15.90L165.98 15.90Q165.98 14.07 166.99 12.95Q167.99 11.82 169.67 11.33Q171.35 10.83 173.36 10.83L173.36 10.83Q175.19 10.83 176.80 11.33Q178.40 11.82 179.39 12.81Q180.38 13.80 180.38 15.33L180.38 15.33Q180.38 15.75 180.35 15.87L180.35 15.87L175.73 15.87L175.73 15.63Q175.73 14.91 175.01 14.49Q174.29 14.07 173.24 14.07L173.24 14.07Q172.37 14.07 171.56 14.36Q170.75 14.64 170.75 15.33L170.75 15.33Q170.75 16.02 171.61 16.32Q172.46 16.62 173.69 16.92L173.69 16.92Q174.77 17.16 176.02 17.41Q177.26 17.67 178.36 18.13Q179.45 18.60 180.13 19.52Q180.80 20.43 180.80 22.02L180.80 22.02Q180.80 24.03 179.77 25.20Q178.73 26.37 176.99 26.86Q175.25 27.36 173.15 27.36ZM188.06 9.06L183.14 9.06L183.14 5.28L188.06 5.28L188.06 9.06ZM188.06 27L183.14 27L183.14 11.19L188.06 11.19L188.06 27ZM197.96 27.36L197.96 27.36Q195.89 27.36 194.18 26.79Q192.47 26.22 191.45 25.11Q190.43 24 190.43 22.35L190.43 22.35Q190.43 22.14 190.46 21.93L190.46 21.93L195.11 21.93Q195.11 22.02 195.11 22.20L195.11 22.20Q195.11 23.22 196.00 23.66Q196.88 24.09 198.05 24.09L198.05 24.09Q198.62 24.09 199.27 23.98Q199.91 23.88 200.36 23.58Q200.81 23.28 200.81 22.71L200.81 22.71Q200.81 22.08 200.26 21.75Q199.70 21.42 198.79 21.20Q197.87 20.97 196.82 20.76L196.82 20.76Q195.77 20.52 194.71 20.22Q193.64 19.92 192.76 19.39Q191.87 18.87 191.33 18.03Q190.79 17.19 190.79 15.90L190.79 15.90Q190.79 14.07 191.80 12.95Q192.80 11.82 194.48 11.33Q196.16 10.83 198.17 10.83L198.17 10.83Q200.00 10.83 201.61 11.33Q203.21 11.82 204.20 12.81Q205.19 13.80 205.19 15.33L205.19 15.33Q205.19 15.75 205.16 15.87L205.16 15.87L200.54 15.87L200.54 15.63Q200.54 14.91 199.82 14.49Q199.10 14.07 198.05 14.07L198.05 14.07Q197.18 14.07 196.37 14.36Q195.56 14.64 195.56 15.33L195.56 15.33Q195.56 16.02 196.42 16.32Q197.27 16.62 198.50 16.92L198.50 16.92Q199.58 17.16 200.83 17.41Q202.07 17.67 203.17 18.13Q204.26 18.60 204.94 19.52Q205.61 20.43 205.61 22.02L205.61 22.02Q205.61 24.03 204.58 25.20Q203.54 26.37 201.80 26.86Q200.06 27.36 197.96 27.36Z" fill="#F7F3EC"></path>
  <path d="M99.14 59L94.25 59L94.25 38.39L102.08 38.39L104.57 47.57Q104.72 48.08 104.93 48.89Q105.14 49.70 105.35 50.60Q105.56 51.50 105.71 52.22L105.71 52.22L105.95 52.22Q106.13 51.38 106.43 50.05Q106.73 48.71 107.03 47.54L107.03 47.54L109.55 38.39L117.17 38.39L117.17 59L111.95 59L111.95 50.21Q111.95 48.95 111.97 47.62Q111.98 46.28 112.01 45.22Q112.04 44.15 112.04 43.64L112.04 43.64L111.80 43.64Q111.71 44.09 111.52 44.95Q111.32 45.80 111.09 46.72Q110.87 47.63 110.69 48.29L110.69 48.29L107.69 59L103.37 59L100.34 48.29Q100.16 47.69 99.97 46.85Q99.77 46.01 99.58 45.16Q99.38 44.30 99.26 43.67L99.26 43.67L99.02 43.67Q99.05 44.45 99.08 45.58Q99.11 46.70 99.13 47.91Q99.14 49.13 99.14 50.21L99.14 50.21L99.14 59ZM128.33 59.36L128.33 59.36Q124.37 59.36 122.15 57.34Q119.93 55.31 119.93 51.08L119.93 51.08Q119.93 46.88 122.15 44.86Q124.37 42.83 128.33 42.83L128.33 42.83Q132.32 42.83 134.54 44.86Q136.76 46.88 136.76 51.08L136.76 51.08Q136.76 55.31 134.54 57.34Q132.32 59.36 128.33 59.36ZM128.33 55.79L128.33 55.79Q130.19 55.79 130.99 54.74Q131.78 53.69 131.78 51.65L131.78 51.65L131.78 50.54Q131.78 48.53 130.99 47.47Q130.19 46.40 128.33 46.40L128.33 46.40Q126.50 46.40 125.71 47.47Q124.91 48.53 124.91 50.54L124.91 50.54L124.91 51.65Q124.91 53.69 125.71 54.74Q126.50 55.79 128.33 55.79ZM144.92 59.36L144.92 59.36Q141.89 59.36 140.15 57.34Q138.41 55.31 138.41 51.05L138.41 51.05Q138.41 46.88 140.17 44.86Q141.92 42.83 144.83 42.83L144.83 42.83Q146.24 42.83 147.41 43.33Q148.58 43.82 149.30 44.81L149.30 44.81L149.48 44.81L149.48 37.28L154.40 37.28L154.40 59L150.38 59L150.02 56.81L149.81 56.81Q149 58.13 147.73 58.74Q146.45 59.36 144.92 59.36ZM146.45 55.52L146.45 55.52Q148.07 55.52 148.79 54.41Q149.51 53.30 149.51 51.47L149.51 51.47L149.51 50.75Q149.51 48.92 148.79 47.80Q148.07 46.67 146.45 46.67L146.45 46.67Q144.77 46.67 144.08 47.67Q143.39 48.68 143.39 50.60L143.39 50.60L143.39 51.65Q143.39 53.54 144.08 54.53Q144.77 55.52 146.45 55.52ZM162.80 59.36L162.80 59.36Q160.25 59.36 158.86 57.95Q157.46 56.54 157.46 53.63L157.46 53.63L157.46 43.19L162.38 43.19L162.38 52.94Q162.38 54.23 163.01 54.86Q163.64 55.49 164.78 55.49L164.78 55.49Q166.07 55.49 166.91 54.61Q167.75 53.72 167.75 52.43L167.75 52.43L167.75 43.19L172.67 43.19L172.67 59L168.62 59L168.32 56.75L168.11 56.75Q167.27 57.95 165.88 58.66Q164.48 59.36 162.80 59.36ZM180.74 59L175.82 59L175.82 37.28L180.74 37.28L180.74 59ZM191.60 59.36L191.60 59.36Q187.55 59.36 185.33 57.37Q183.11 55.37 183.11 51.08L183.11 51.08Q183.11 46.88 185.30 44.86Q187.49 42.83 191.42 42.83L191.42 42.83Q195.29 42.83 197.36 44.80Q199.43 46.76 199.43 51.02L199.43 51.02L199.43 52.07L188.09 52.07Q188.12 53.96 188.92 54.97Q189.71 55.97 191.57 55.97L191.57 55.97Q193.07 55.97 193.87 55.27Q194.66 54.56 194.66 53.36L194.66 53.36L199.43 53.36Q199.43 56.27 197.36 57.81Q195.29 59.36 191.60 59.36ZM188.12 49.34L188.12 49.34L194.42 49.34Q194.42 47.78 193.66 47Q192.89 46.22 191.54 46.22L191.54 46.22Q189.92 46.22 189.11 47.02Q188.30 47.81 188.12 49.34ZM208.61 59.36L208.61 59.36Q206.54 59.36 204.83 58.79Q203.12 58.22 202.10 57.11Q201.08 56 201.08 54.35L201.08 54.35Q201.08 54.14 201.11 53.93L201.11 53.93L205.76 53.93Q205.76 54.02 205.76 54.20L205.76 54.20Q205.76 55.22 206.65 55.66Q207.53 56.09 208.70 56.09L208.70 56.09Q209.27 56.09 209.92 55.98Q210.56 55.88 211.01 55.58Q211.46 55.28 211.46 54.71L211.46 54.71Q211.46 54.08 210.91 53.75Q210.35 53.42 209.44 53.20Q208.52 52.97 207.47 52.76L207.47 52.76Q206.42 52.52 205.36 52.22Q204.29 51.92 203.41 51.40Q202.52 50.87 201.98 50.03Q201.44 49.19 201.44 47.90L201.44 47.90Q201.44 46.07 202.45 44.95Q203.45 43.82 205.13 43.33Q206.81 42.83 208.82 42.83L208.82 42.83Q210.65 42.83 212.26 43.33Q213.86 43.82 214.85 44.81Q215.84 45.80 215.84 47.33L215.84 47.33Q215.84 47.75 215.81 47.87L215.81 47.87L211.19 47.87L211.19 47.63Q211.19 46.91 210.47 46.49Q209.75 46.07 208.70 46.07L208.70 46.07Q207.83 46.07 207.02 46.36Q206.21 46.64 206.21 47.33L206.21 47.33Q206.21 48.02 207.07 48.32Q207.92 48.62 209.15 48.92L209.15 48.92Q210.23 49.16 211.48 49.41Q212.72 49.67 213.82 50.13Q214.91 50.60 215.59 51.52Q216.26 52.43 216.26 54.02L216.26 54.02Q216.26 56.03 215.23 57.20Q214.19 58.37 212.45 58.87Q210.71 59.36 208.61 59.36Z" fill="#C97E2C"></path>
</svg>